<svg width="18" height="20" viewBox="0 0 18 20" fill="none" xmlns="http://www.w3.org/2000/svg">
<path d="M9.83321 1.25C8.99988 1.25 8.16654 3.09988 6.93037 3.09988C6.16671 3.09988 5.55026 3.77153 5.55026 4.53519V11.8038L4.12414 10.3777C3.5445 9.79801 2.60602 9.6876 1.97117 10.2028C1.33632 10.7181 1.22591 11.6934 1.71355 12.3374L4.47377 16.0361C5.09942 16.8734 5.41225 17.2966 5.78948 17.6186C6.36912 18.1155 7.05918 18.4651 7.79524 18.6215C8.28288 18.7319 8.80732 18.7319 9.847 18.7319C11.8436 18.7319 12.8372 18.7319 13.6285 18.4283C14.1529 18.2259 14.567 17.8671 14.9258 17.453C15.3858 16.9102 15.6343 16.2569 15.9379 15.5669L16.2599 14.5916C16.4623 13.9843 16.5635 13.3403 16.5727 12.7054C16.5819 10.5709 16.5727 8.4455 16.5727 6.31093C16.5727 5.54727 15.9563 4.93082 15.1926 4.93082C13.9999 4.93082 13.5832 3.09988 12.3332 3.09988" fill="#D5F4EC"/>
<path d="M11.0708 4.48002V2.63988C11.0708 1.87621 10.4543 1.25977 9.69066 1.25977C8.927 1.25977 8.31055 1.87621 8.31055 2.63988V4.48002V5.4001M11.0708 4.48002C11.0708 3.71636 11.6872 3.09991 12.4509 3.09991C13.2145 3.09991 13.831 3.71636 13.831 4.48002V6.32017V8.62035M11.0708 4.48002V8.16032" stroke="#03BA8A" stroke-width="1.25" stroke-linecap="round" stroke-linejoin="round"/>
<path d="M8.31048 4.47996C8.31048 3.7163 7.69403 3.09985 6.93037 3.09985C6.16671 3.09985 5.55026 3.77151 5.55026 4.53517V11.8037L4.12414 10.3776C3.5445 9.79799 2.60602 9.68758 1.97117 10.2028C1.33632 10.7181 1.22591 11.6933 1.71355 12.3374L4.47377 16.0361C5.09942 16.8733 5.41225 17.2966 5.78948 17.6186C6.36912 18.1154 7.05918 18.4651 7.79524 18.6215C8.28287 18.7319 8.80732 18.7319 9.847 18.7319C11.8436 18.7319 12.8372 18.7319 13.6285 18.4283C14.1529 18.2259 14.567 17.867 14.9258 17.453C15.3858 16.9102 15.6343 16.2569 15.9379 15.5668L16.2599 14.5916C16.4623 13.9843 16.5635 13.3403 16.5727 12.7054C16.5819 10.5708 16.5727 8.44548 16.5727 6.31091C16.5727 5.54725 15.9563 4.9308 15.1926 4.9308C14.429 4.9308 13.8125 5.54725 13.8125 6.31091" stroke="#03BA8A" stroke-width="1.25" stroke-linecap="round" stroke-linejoin="round"/>
</svg>
