<svg width="16" height="16" viewBox="0 0 16 16" fill="none" xmlns="http://www.w3.org/2000/svg">
<path d="M9.65642 3.58402V2.1119C9.65642 1.50097 9.16326 1.00781 8.55233 1.00781C7.9414 1.00781 7.44824 1.50097 7.44824 2.1119V3.58402V4.32008M9.65642 3.58402C9.65642 2.97309 10.1496 2.47993 10.7605 2.47993C11.3714 2.47993 11.8646 2.97309 11.8646 3.58402V5.05614V6.89628M9.65642 3.58402V6.52825" stroke="#333B70" stroke-width="1.5" stroke-linecap="round" stroke-linejoin="round"/>
<path d="M7.44848 3.58401C7.44848 2.97308 6.95532 2.47992 6.34439 2.47992C5.73346 2.47992 5.2403 3.01724 5.2403 3.62817V9.44303L4.09941 8.30214C3.6357 7.83843 2.88492 7.7501 2.37704 8.16229C1.86915 8.57448 1.78083 9.35471 2.17094 9.86995L4.37911 12.8289C4.87963 13.4987 5.12989 13.8373 5.43168 14.0949C5.8954 14.4924 6.44744 14.7721 7.03629 14.8972C7.4264 14.9856 7.84595 14.9856 8.6777 14.9856C10.2749 14.9856 11.0699 14.9856 11.7029 14.7427C12.1224 14.5807 12.4537 14.2937 12.7407 13.9624C13.1088 13.5282 13.3075 13.0056 13.5504 12.4535L13.808 11.6733C13.97 11.1875 14.0509 10.6723 14.0583 10.1644C14.0656 8.45671 14.0583 6.75642 14.0583 5.04876C14.0583 4.43784 13.5651 3.94468 12.9542 3.94468C12.3433 3.94468 11.8501 4.43784 11.8501 5.04876" stroke="#333B70" stroke-width="1.5" stroke-linecap="round" stroke-linejoin="round"/>
</svg>
